<svg id="visual" viewBox="0 0 900 600" width="900" height="600" xmlns="http://www.w3.org/2000/svg" xmlns:xlink="http://www.w3.org/1999/xlink" version="1.1"><rect x="0" y="0" width="900" height="600" fill="#FFFFFF"></rect><defs><linearGradient id="grad1_0" x1="33.3%" y1="100%" x2="100%" y2="0%"><stop offset="20%" stop-color="#ffffff" stop-opacity="1"></stop><stop offset="80%" stop-color="#ffffff" stop-opacity="1"></stop></linearGradient></defs><defs><linearGradient id="grad2_0" x1="0%" y1="100%" x2="66.7%" y2="0%"><stop offset="20%" stop-color="#ffffff" stop-opacity="1"></stop><stop offset="80%" stop-color="#ffffff" stop-opacity="1"></stop></linearGradient></defs><g transform="translate(900, 600)"><path d="M-243.4 0C-243.5 -34.8 -243.6 -69.6 -224.8 -93.1C-206.1 -116.7 -168.6 -129.1 -141.4 -141.4C-114.3 -153.7 -97.6 -166 -75.8 -182.9C-53.9 -199.9 -27 -221.6 0 -243.4L0 0Z" fill="#915ce1"></path></g><g transform="translate(0, 0)"><path d="M243.4 0C240.8 32.7 238.2 65.3 224.8 93.1C211.5 120.9 187.5 143.9 163.3 163.3C139.2 182.8 114.9 198.8 87.6 211.6C60.4 224.3 30.2 233.9 0 243.4L0 0Z" fill="#915ce1"></path></g></svg>