<?xml version="1.0" encoding="UTF-8" standalone="no"?>
<svg
   id="visual"
   viewBox="0 0 900 600"
   width="900"
   height="600"
   version="1.1"
   sodipodi:docname="fondo9.svg"
   inkscape:version="1.2.1 (9c6d41e410, 2022-07-14)"
   xmlns:inkscape="http://www.inkscape.org/namespaces/inkscape"
   xmlns:sodipodi="http://sodipodi.sourceforge.net/DTD/sodipodi-0.dtd"
   xmlns="http://www.w3.org/2000/svg"
   xmlns:svg="http://www.w3.org/2000/svg">
  <defs
     id="defs17383" />
  <sodipodi:namedview
     id="namedview17381"
     pagecolor="#ffffff"
     bordercolor="#000000"
     borderopacity="0.25"
     inkscape:showpageshadow="2"
     inkscape:pageopacity="0.0"
     inkscape:pagecheckerboard="0"
     inkscape:deskcolor="#d1d1d1"
     showgrid="false"
     inkscape:zoom="1.34"
     inkscape:cx="466.79104"
     inkscape:cy="276.49254"
     inkscape:window-width="1920"
     inkscape:window-height="991"
     inkscape:window-x="-9"
     inkscape:window-y="-9"
     inkscape:window-maximized="1"
     inkscape:current-layer="visual" />
  <rect
     x="91.791046"
     y="36.567165"
     width="782.83582"
     height="564.17908"
     fill="#ffffff"
     id="rect17374"
     ry="0"
     style="stroke-width:0.940868" />
  <g
     transform="matrix(1.1868883,-0.92605712,0.71092507,0.74443378,581.05486,251.40577)"
     id="g17378"
     style="fill:#f20cef;fill-opacity:1">
    <path
       d="m 103.28287,-124.62314 c 26.56167,20.47034 17.33952,60.773266 11.16341,110.185346 C 108.27743,34.874679 74.527959,63.35492 44.376538,93.468351 14.225117,123.58178 -15.951097,121.21914 -73.291129,142.08734 c -57.436551,20.88327 -60.958641,23.70871 -97.210401,3.96363 -36.2445,-19.84469 -71.94584,-79.049156 -60.12105,-143.1291732 11.91404,-63.9954838 33.93005,-220.5624668 73.86808,-251.4162268 39.93803,-30.85377 98.851,-57.44721 143.263916,-41.93496 60.091878,16.6399 22.0894728,80.16044 48.554623,100.64587"
       fill="#9a62ef"
       id="path17376"
       sodipodi:nodetypes="ccscccscc"
       style="fill:#f20cef;fill-opacity:1;stroke-width:0.974887" />
  </g>
  <g
     transform="matrix(0.16316495,0.36923944,-0.33815716,0.21897872,753.58112,263.2001)"
     id="g17877"
     style="fill:#ff002f;fill-opacity:1">
    <path
       d="M -0.23506859,-148.51295 C 26.149831,-126.46191 32.898511,-81.390295 31.198381,-38.685582 29.496831,3.9322713 19.257911,44.182085 -6.3252386,66.257515 -31.908401,88.332946 -73.010093,92.40543 -124.64241,102.24738 c -51.72086,9.84081 -114.0581,25.62368 -149.39786,2.76238 93.21749,-62.77198 30.08806,32.6026 -3.39863,-10.052146 5.84398,-54.722406 76.38068,-164.44889 111.00724,-185.71293 34.62657,-21.264034 80.629877,-74.695624 128.208307,-72.431884 47.6655779,2.17802 11.69193,-7.37564 37.98828441,14.67425"
       fill="#9a62ef"
       id="path17875"
       style="fill:#ff002f;fill-opacity:1;stroke-width:0.876926"
       sodipodi:nodetypes="ccscccscc" />
  </g>
  <g
     transform="matrix(-0.25969107,0.19840143,-0.26112554,-0.24661656,686.5349,373.33609)"
     id="g17883"
     style="fill:#e41294;fill-opacity:1">
    <path
       d="m 133,-128.7 c 29.4,25 36.2,76.8 33.5,126 -2.7,49.1 -15,95.6 -44.3,121.4 C 92.9,144.5 20.141015,207.35155 -38.358985,219.45155 -96.958985,231.55155 -141.4,193.1 -180.9,167.3 -220.4,141.4 -263.36906,85.173361 -255.86906,21.973361 -248.26906,-41.126639 -190.3,-111.3 -150.8,-136.3 c 39.5,-25 95.2,-19.3 148.9,-17.4 53.8,1.8 105.6,0 134.9,25"
       fill="#9a62ef"
       id="path17881"
       style="fill:#e41294;fill-opacity:1"
       sodipodi:nodetypes="ccscccscc" />
  </g>
  <g
     transform="matrix(-0.35173731,0.26177261,-0.35368022,-0.32538808,205.05863,433.87162)"
     id="g44869"
     style="fill:#ce12e4;fill-opacity:1">
    <path
       d="m 133,-128.7 c 29.4,25 36.2,76.8 33.5,126 -2.7,49.1 -15,95.6 -44.3,121.4 C 92.9,144.5 20.141015,207.35155 -38.358985,219.45155 -96.958985,231.55155 -141.4,193.1 -180.9,167.3 -220.4,141.4 -263.36906,85.173361 -255.86906,21.973361 -248.26906,-41.126639 -190.3,-111.3 -150.8,-136.3 c 39.5,-25 95.2,-19.3 148.9,-17.4 53.8,1.8 105.6,0 134.9,25"
       fill="#9a62ef"
       id="path44867"
       style="fill:#ce12e4;fill-opacity:1"
       sodipodi:nodetypes="ccscccscc" />
  </g>
  <g
     transform="matrix(0.23960777,0.5283647,-0.49658384,0.3133485,161.3946,173.61915)"
     id="g44873"
     style="fill:#00ebff;fill-opacity:1">
    <path
       d="M -0.23506859,-148.51295 C 26.149831,-126.46191 32.898511,-81.390295 31.198381,-38.685582 29.496831,3.9322713 19.257911,44.182085 -6.3252386,66.257515 -31.908401,88.332946 -73.010093,92.40543 -124.64241,102.24738 c -51.72086,9.84081 -114.0581,25.62368 -149.39786,2.76238 93.21749,-62.77198 30.08806,32.6026 -3.39863,-10.052146 5.84398,-54.722406 76.38068,-164.44889 111.00724,-185.71293 34.62657,-21.264034 80.629877,-74.695624 128.208307,-72.431884 47.6655779,2.17802 11.69193,-7.37564 37.98828441,14.67425"
       fill="#9a62ef"
       id="path44871"
       style="fill:#00ebff;fill-opacity:1;stroke-width:0.876926"
       sodipodi:nodetypes="ccscccscc" />
  </g>
</svg>
