<?xml version="1.0" encoding="UTF-8" standalone="no"?>
<svg
   id="visual"
   viewBox="0 0 900 600"
   width="900"
   height="600"
   version="1.1"
   sodipodi:docname="fondo3.svg"
   inkscape:version="1.2.1 (9c6d41e410, 2022-07-14)"
   xmlns:inkscape="http://www.inkscape.org/namespaces/inkscape"
   xmlns:sodipodi="http://sodipodi.sourceforge.net/DTD/sodipodi-0.dtd"
   xmlns="http://www.w3.org/2000/svg"
   xmlns:svg="http://www.w3.org/2000/svg">
  <defs
     id="defs17383" />
  <sodipodi:namedview
     id="namedview17381"
     pagecolor="#ffffff"
     bordercolor="#000000"
     borderopacity="0.25"
     inkscape:showpageshadow="2"
     inkscape:pageopacity="0.0"
     inkscape:pagecheckerboard="0"
     inkscape:deskcolor="#d1d1d1"
     showgrid="false"
     inkscape:zoom="1.34"
     inkscape:cx="451.86567"
     inkscape:cy="312.31343"
     inkscape:window-width="1920"
     inkscape:window-height="991"
     inkscape:window-x="-9"
     inkscape:window-y="-9"
     inkscape:window-maximized="1"
     inkscape:current-layer="visual" />
  <rect
     x="6.7164183"
     y="27.61194"
     width="884.32837"
     height="564.17908"
     fill="#ffffff"
     id="rect17374"
     ry="0" />
  <g
     transform="matrix(1.1900312,-0.79491675,0.52594131,0.95282841,499.35813,267.1494)"
     id="g17378"
     style="fill:#b2e426;fill-opacity:1">
    <path
       d="m 146.43284,-79.446269 c 29.4,25 34.70746,82.0238809 32.00746,131.223881 -2.7,49.099998 -7.53731,70.226868 -36.83731,96.026868 -29.3,25.8 -61.6209,40.05522 -120.1209,52.15522 -58.6,12.1 -134.22945,-4.50513 -173.72945,-30.30513 -39.5,-25.9 -81.43592,-91.684817 -73.93592,-154.884817 7.6,-63.1 18.7191,-218.607063 58.2191,-243.607063 39.5,-25 127.875965,8.63375 175.6058163,31.42928 64.2477607,26.42686 94.5658237,75.05131 123.8658237,100.051314"
       fill="#9a62ef"
       id="path17376"
       sodipodi:nodetypes="ccscccscc"
       style="fill:#b2e426;fill-opacity:1" />
  </g>
  <g
     transform="matrix(0.14461744,0.26553054,-0.29971769,0.1574738,127.27838,347.70682)"
     id="g17877"
     style="fill:#f400ff;fill-opacity:1">
    <path
       d="M -0.23506859,-148.51295 C 26.149831,-126.46191 32.898511,-81.390295 31.198381,-38.685582 29.496831,3.9322713 19.257911,44.182085 -6.3252386,66.257515 -31.908401,88.332946 -73.010093,92.40543 -124.64241,102.24738 c -51.72086,9.84081 -114.0581,25.62368 -149.39786,2.76238 -35.34116,-22.948147 -43.68345,-84.453597 -37.92942,-139.264006 5.84398,-54.722406 25.69432,-102.837774 60.32088,-124.101814 34.62657,-21.26403 84.02936,-15.67673 131.60779,-13.41299 47.665578,2.17802 93.509597,1.20621 119.80595141,23.2561"
       fill="#9a62ef"
       id="path17875"
       style="fill:#f400ff;fill-opacity:1;stroke-width:0.876926" />
  </g>
  <g
     transform="matrix(-0.25969107,0.19840143,-0.26112554,-0.24661656,822.35581,198.70923)"
     id="g17883"
     style="fill:#9e29b9;fill-opacity:1">
    <path
       d="m 133,-128.7 c 29.4,25 36.2,76.8 33.5,126 -2.7,49.1 -15,95.6 -44.3,121.4 -29.3,25.8 -75.8,31.1 -134.3,43.2 -58.6,12.1 -129.3,31.2 -168.8,5.4 -39.5,-25.9 -47.8,-96.6 -40.3,-159.8 7.6,-63.1 30.9,-118.8 70.4,-143.8 39.5,-25 95.2,-19.3 148.9,-17.4 53.8,1.8 105.6,0 134.9,25"
       fill="#9a62ef"
       id="path17881"
       style="fill:#9e29b9;fill-opacity:1" />
  </g>
</svg>
