<?xml version="1.0" encoding="UTF-8" standalone="no"?>
<svg
   id="visual"
   viewBox="0 0 900 600"
   width="900"
   height="600"
   version="1.1"
   sodipodi:docname="fondo 1.svg"
   inkscape:version="1.2.1 (9c6d41e410, 2022-07-14)"
   xmlns:inkscape="http://www.inkscape.org/namespaces/inkscape"
   xmlns:sodipodi="http://sodipodi.sourceforge.net/DTD/sodipodi-0.dtd"
   xmlns="http://www.w3.org/2000/svg"
   xmlns:svg="http://www.w3.org/2000/svg">
  <defs
     id="defs17383" />
  <sodipodi:namedview
     id="namedview17381"
     pagecolor="#ffffff"
     bordercolor="#000000"
     borderopacity="0.25"
     inkscape:showpageshadow="2"
     inkscape:pageopacity="0.0"
     inkscape:pagecheckerboard="0"
     inkscape:deskcolor="#d1d1d1"
     showgrid="false"
     inkscape:zoom="1.34"
     inkscape:cx="450.37313"
     inkscape:cy="253.35821"
     inkscape:window-width="1920"
     inkscape:window-height="991"
     inkscape:window-x="-9"
     inkscape:window-y="-9"
     inkscape:window-maximized="1"
     inkscape:current-layer="visual" />
  <rect
     x="10.447762"
     y="70.895523"
     width="900"
     height="600"
     fill="#ffffff"
     id="rect17374" />
  <g
     transform="translate(478.3254055564316 287.7463441072266)"
     id="g17378">
    <path
       d="M133 -128.7C162.4 -103.7 169.2 -51.9 166.5 -2.7C163.8 46.4 151.5 92.9 122.2 118.7C92.9 144.5 46.4 149.8 -12.1 161.9C-70.7 174 -141.4 193.1 -180.9 167.3C-220.4 141.4 -228.7 70.7 -221.2 7.5C-213.6 -55.6 -190.3 -111.3 -150.8 -136.3C-111.3 -161.3 -55.6 -155.6 -1.9 -153.7C51.9 -151.9 103.7 -153.7 133 -128.7"
       fill="#9a62ef"
       id="path17376" />
  </g>
  <g
     transform="matrix(0.14461744,0.26553054,-0.29971769,0.1574738,101.15898,95.468019)"
     id="g17877">
    <path
       d="m 133,-128.7 c 29.4,25 36.2,76.8 33.5,126 -2.7,49.1 -15,95.6 -44.3,121.4 -29.3,25.8 -75.8,31.1 -134.3,43.2 -58.6,12.1 -129.3,31.2 -168.8,5.4 -39.5,-25.9 -47.8,-96.6 -40.3,-159.8 7.6,-63.1 30.9,-118.8 70.4,-143.8 39.5,-25 95.2,-19.3 148.9,-17.4 53.8,1.8 105.6,0 134.9,25"
       fill="#9a62ef"
       id="path17875" />
  </g>
  <g
     transform="matrix(-0.17848533,0.15684137,-0.17947124,-0.19495665,795.25908,469.84234)"
     id="g17883">
    <path
       d="m 133,-128.7 c 29.4,25 36.2,76.8 33.5,126 -2.7,49.1 -15,95.6 -44.3,121.4 -29.3,25.8 -75.8,31.1 -134.3,43.2 -58.6,12.1 -129.3,31.2 -168.8,5.4 -39.5,-25.9 -47.8,-96.6 -40.3,-159.8 7.6,-63.1 30.9,-118.8 70.4,-143.8 39.5,-25 95.2,-19.3 148.9,-17.4 53.8,1.8 105.6,0 134.9,25"
       fill="#9a62ef"
       id="path17881" />
  </g>
</svg>
