<?xml version="1.0" encoding="UTF-8" standalone="no"?>
<svg
   id="visual"
   viewBox="0 0 650 600"
   width="650"
   height="600"
   version="1.1"
   sodipodi:docname="fondo boton.svg"
   inkscape:version="1.2.1 (9c6d41e410, 2022-07-14)"
   xmlns:inkscape="http://www.inkscape.org/namespaces/inkscape"
   xmlns:sodipodi="http://sodipodi.sourceforge.net/DTD/sodipodi-0.dtd"
   xmlns="http://www.w3.org/2000/svg"
   xmlns:svg="http://www.w3.org/2000/svg">
  <defs
     id="defs1096" />
  <sodipodi:namedview
     id="namedview1094"
     pagecolor="#ffffff"
     bordercolor="#000000"
     borderopacity="0.25"
     inkscape:showpageshadow="2"
     inkscape:pageopacity="0.0"
     inkscape:pagecheckerboard="0"
     inkscape:deskcolor="#d1d1d1"
     showgrid="false"
     inkscape:zoom="1.2916667"
     inkscape:cx="450.19355"
     inkscape:cy="327.09677"
     inkscape:window-width="1920"
     inkscape:window-height="991"
     inkscape:window-x="-9"
     inkscape:window-y="-9"
     inkscape:window-maximized="1"
     inkscape:current-layer="visual" />
  <rect
     x="0"
     y="0"
     width="646.06451"
     height="600"
     fill="#ffffff"
     id="rect1087"
     style="stroke-width:0.84726" />
  <g
     transform="matrix(0.90654032,0,0,0.69331702,458.52784,257.61104)"
     id="g1091">
    <path
       d="M 150.11567,-106.69477 C 183.88189,-57.12844 181.27255,18.50629 145.71923,98.972535 71.735505,167.05561 36.512996,193.25533 -1.8933206,202.19159 -55.186891,214.59177 -156.70312,216.17005 -239.89607,206.59264 c -82.17248,-29.46792 -149.93931,-53.90132 -185.52461,-91.31422 -37.36365,-50.674205 -32.41331,-95.675195 -23.79948,-158.875195 8.72869,-63.099995 42.35621,-121.508995 87.72238,-146.508995 45.36617,-25 165.84347,-53.70697 227.5185,-51.80697 61.789868,1.8 155.729066,32.45479 196.212502,46.28828"
       fill="#9a62ef"
       id="path1089"
       sodipodi:nodetypes="ccscccscc"
       style="stroke-width:1.07168;fill:#eeef62;fill-opacity:1" />
  </g>
</svg>
