<svg id="visual" viewBox="0 0 960 540" width="960" height="540" xmlns="http://www.w3.org/2000/svg" xmlns:xlink="http://www.w3.org/1999/xlink" version="1.1"><path d="M0 120L14.5 114.5C29 109 58 98 87.2 89.8C116.3 81.7 145.7 76.3 174.8 86.3C204 96.3 233 121.7 262 128.8C291 136 320 125 349 113.3C378 101.7 407 89.3 436.2 91.2C465.3 93 494.7 109 523.8 105.3C553 101.7 582 78.3 611 82.8C640 87.3 669 119.7 698 134C727 148.3 756 144.7 785.2 137.5C814.3 130.3 843.7 119.7 872.8 104.5C902 89.3 931 69.7 945.5 59.8L960 50L960 0L945.5 0C931 0 902 0 872.8 0C843.7 0 814.3 0 785.2 0C756 0 727 0 698 0C669 0 640 0 611 0C582 0 553 0 523.8 0C494.7 0 465.3 0 436.2 0C407 0 378 0 349 0C320 0 291 0 262 0C233 0 204 0 174.8 0C145.7 0 116.3 0 87.2 0C58 0 29 0 14.5 0L0 0Z" fill="#ff76ae"></path><path d="M0 190L14.5 180.2C29 170.3 58 150.7 87.2 142.5C116.3 134.3 145.7 137.7 174.8 151.2C204 164.7 233 188.3 262 200.2C291 212 320 212 349 197.5C378 183 407 154 436.2 153C465.3 152 494.7 179 523.8 183.5C553 188 582 170 611 167.3C640 164.7 669 177.3 698 189C727 200.7 756 211.3 785.2 212.2C814.3 213 843.7 204 872.8 185.2C902 166.3 931 137.7 945.5 123.3L960 109L960 48L945.5 57.8C931 67.7 902 87.3 872.8 102.5C843.7 117.7 814.3 128.3 785.2 135.5C756 142.7 727 146.3 698 132C669 117.7 640 85.3 611 80.8C582 76.3 553 99.7 523.8 103.3C494.7 107 465.3 91 436.2 89.2C407 87.3 378 99.7 349 111.3C320 123 291 134 262 126.8C233 119.7 204 94.3 174.8 84.3C145.7 74.3 116.3 79.7 87.2 87.8C58 96 29 107 14.5 112.5L0 118Z" fill="#ff5098"></path><path d="M0 384L14.5 366C29 348 58 312 87.2 305.8C116.3 299.7 145.7 323.3 174.8 344.2C204 365 233 383 262 387.5C291 392 320 383 349 374C378 365 407 356 436.2 348.7C465.3 341.3 494.7 335.7 523.8 326.7C553 317.7 582 305.3 611 307.2C640 309 669 325 698 344.7C727 364.3 756 387.7 785.2 376.8C814.3 366 843.7 321 872.8 310.3C902 299.7 931 323.3 945.5 335.2L960 347L960 107L945.5 121.3C931 135.7 902 164.3 872.8 183.2C843.7 202 814.3 211 785.2 210.2C756 209.3 727 198.7 698 187C669 175.3 640 162.7 611 165.3C582 168 553 186 523.8 181.5C494.7 177 465.3 150 436.2 151C407 152 378 181 349 195.5C320 210 291 210 262 198.2C233 186.3 204 162.7 174.8 149.2C145.7 135.7 116.3 132.3 87.2 140.5C58 148.7 29 168.3 14.5 178.2L0 188Z" fill="#ff007f"></path><path d="M0 428L14.5 413.5C29 399 58 370 87.2 369C116.3 368 145.7 395 174.8 414C204 433 233 444 262 447.7C291 451.3 320 447.7 349 444C378 440.3 407 436.7 436.2 426.7C465.3 416.7 494.7 400.3 523.8 387.7C553 375 582 366 611 367.8C640 369.7 669 382.3 698 396.8C727 411.3 756 427.7 785.2 419.7C814.3 411.7 843.7 379.3 872.8 372.2C902 365 931 383 945.5 392L960 401L960 345L945.5 333.2C931 321.3 902 297.7 872.8 308.3C843.7 319 814.3 364 785.2 374.8C756 385.7 727 362.3 698 342.7C669 323 640 307 611 305.2C582 303.3 553 315.7 523.8 324.7C494.7 333.7 465.3 339.3 436.2 346.7C407 354 378 363 349 372C320 381 291 390 262 385.5C233 381 204 363 174.8 342.2C145.7 321.3 116.3 297.7 87.2 303.8C58 310 29 346 14.5 364L0 382Z" fill="#dc006f"></path><path d="M0 541L14.5 541C29 541 58 541 87.2 541C116.3 541 145.7 541 174.8 541C204 541 233 541 262 541C291 541 320 541 349 541C378 541 407 541 436.2 541C465.3 541 494.7 541 523.8 541C553 541 582 541 611 541C640 541 669 541 698 541C727 541 756 541 785.2 541C814.3 541 843.7 541 872.8 541C902 541 931 541 945.5 541L960 541L960 399L945.5 390C931 381 902 363 872.8 370.2C843.7 377.3 814.3 409.7 785.2 417.7C756 425.7 727 409.3 698 394.8C669 380.3 640 367.7 611 365.8C582 364 553 373 523.8 385.7C494.7 398.3 465.3 414.7 436.2 424.7C407 434.7 378 438.3 349 442C320 445.7 291 449.3 262 445.7C233 442 204 431 174.8 412C145.7 393 116.3 366 87.2 367C58 368 29 397 14.5 411.5L0 426Z" fill="#ba005f"></path></svg>